<svg width="399" height="119" viewBox="0 0 399 119" fill="none" xmlns="http://www.w3.org/2000/svg">
<path d="M194.001 68.937L213.666 27.3376C215.851 23.3236 221.532 17.704 226.776 27.3376L246.44 68.937H233.33H232.238L231.145 64.5586H220.767H217.116L220.221 57.1144H226.776L220.221 42.226L210.388 64.5586L208.204 68.937H194.001Z" fill="#FFA110"/>
<path d="M226.581 27.108L220.473 42.38L231.672 68.8515H246.944L226.581 27.108Z" fill="#FFA110"/>
<path d="M213.666 27.3376L194.001 68.937H208.204L210.388 64.5586L220.221 42.226L226.776 27.3376C221.532 17.704 215.851 23.3236 213.666 27.3376Z" fill="#1DACD9"/>
<path d="M217.117 64.4518L220.222 57.207H226.432L229.882 64.4518H217.117Z" fill="#1089C0"/>
<path fill-rule="evenodd" clip-rule="evenodd" d="M317.618 24.9599V62.2255C317.618 64.0523 320.232 67.7058 330.69 67.7058H343.761C350.297 66.6097 364.022 60.6911 366.637 45.7848C367.726 37.7472 364.676 21.4526 343.761 20.5757H330.69C327.059 20.5757 319.361 21.4526 317.618 24.9599ZM330.789 31.5883V55.8464H342.572C346.384 55.3843 354.147 52.173 354.701 43.0242C354.586 39.2123 351.998 31.5883 342.572 31.5883H330.789Z" fill="#1089C0"/>
<path d="M317.619 67.7058V20.5758C320.5 20.5756 327.1 20.5758 330.69 20.5758V31.5363V55.6493V67.7058H317.619Z" fill="#1DACD9"/>
<path d="M255.519 24.6692C256.617 21.7621 260.351 17.4741 266.502 23.579L281.879 38.841L299.452 21.3986C302.015 19.9451 307.58 18.3464 309.337 23.579V68.2753H297.255V42.1119L282.977 56.2839L267.6 42.1119V68.2753H255.519V30.1202V24.6692Z" fill="#1089C0"/>
<path d="M266.502 23.579C260.351 17.4741 256.617 21.7621 255.519 24.6692V30.1202L267.6 42.1119L282.977 56.2839L297.255 42.1119V68.2753H309.337V23.579C307.58 18.3464 302.015 19.9451 299.452 21.3986L281.879 38.841L266.502 23.579Z" fill="#1DACD9"/>
<path d="M297.255 68.2742H309.337V28.8686L297.255 42.1109V68.2742Z" fill="#1089C0"/>
<path d="M194.001 100.634L202.599 82.4468C203.554 80.6919 206.037 78.2351 208.33 82.4468L216.927 100.634H211.196H210.718L210.24 98.7194H205.703H204.107L205.464 95.4648H208.33L205.464 88.9558L201.166 98.7194L200.21 100.634H194.001Z" fill="#1DACD9"/>
<path d="M202.599 82.4468L194.001 100.634H200.21L201.166 98.7194L205.464 88.9558L208.33 82.4468C206.037 78.2351 203.554 80.6919 202.599 82.4468Z" fill="url(#paint0_linear_1229_7489)"/>
<path d="M204.106 98.6737L205.464 95.5063H208.179L209.687 98.6737H204.106Z" fill="#1089C0"/>
<path d="M240.286 83.5153L236.554 86.3779C234.258 85.5954 232.42 85.3097 230.956 85.3764C225.994 85.6026 225.344 89.8784 225.824 92.58C227.317 97.5417 233.599 96.2377 236.554 94.9655L240.286 97.8281C235.807 101.263 230.955 101.168 229.089 100.691C220.132 98.7823 220.07 90.9898 221.159 87.3321C221.903 85.9881 222.685 84.8589 223.492 83.9181C229.555 76.8436 236.992 80.4272 240.286 83.5153Z" fill="#1089C0"/>
<path d="M240.287 83.5153L236.555 86.3779C234.259 85.5954 232.421 85.3097 230.957 85.3764C229.837 85.0324 225.514 84.2609 223.493 83.9181C229.556 76.8436 236.993 80.4272 240.287 83.5153Z" fill="#1DACD9"/>
<path d="M244.034 100.633L252.631 82.4463C253.586 80.6914 256.07 78.2346 258.363 82.4463L266.96 100.633H261.228H260.751L260.273 98.7189H255.736H254.139L255.497 95.4644H258.363L255.497 88.9553L251.198 98.7189L250.243 100.633H244.034Z" fill="#1089C0"/>
<path d="M252.631 82.4463L244.034 100.633H250.243L251.198 98.7189L255.497 88.9553L258.363 82.4463C256.07 78.2346 253.586 80.6914 252.631 82.4463Z" fill="#1DACD9"/>
<path fill-rule="evenodd" clip-rule="evenodd" d="M270.488 81.9949V98.3777C270.488 99.1807 271.638 100.787 276.235 100.787H281.981C284.855 100.305 290.889 97.7031 292.038 91.15C292.517 87.6164 291.176 80.453 281.981 80.0675H276.235C274.639 80.0675 271.254 80.453 270.488 81.9949ZM276.278 84.9087V95.5731H281.458C283.134 95.3699 286.547 93.9582 286.791 89.9362C286.74 88.2603 285.602 84.9087 281.458 84.9087H276.278Z" fill="#1089C0"/>
<path d="M270.489 100.787V80.0676L276.236 80.0676V84.886V95.4867V100.787H270.489Z" fill="#1DACD9"/>
<path d="M295.875 97.6784V83.6202C295.875 80.1299 299.115 79.9037 300.735 80.2269H313.371V84.5897H300.735V87.9831H313.371V92.346H300.735V95.7393H313.371V100.587H300.735C296.847 100.975 295.875 98.8095 295.875 97.6784Z" fill="#1089C0"/>
<path d="M295.875 97.6784V83.6202C295.875 80.1299 299.115 79.9037 300.735 80.2269V84.5897V87.9831V92.346V95.7393V100.587C296.847 100.975 295.875 98.8095 295.875 97.6784Z" fill="#1DACD9"/>
<path d="M317.119 81.8686C317.599 80.5977 319.232 78.7231 321.921 81.392L328.643 88.0644L336.326 80.4388C337.447 79.8033 339.88 79.1044 340.648 81.392V100.933H335.366V89.4944L329.124 95.6902L322.401 89.4944V100.933H317.119V84.2518V81.8686Z" fill="#1089C0"/>
<path d="M321.921 81.392C319.232 78.7231 317.599 80.5977 317.119 81.8686V84.2518L322.401 89.4944L329.124 95.6902L335.366 89.4944V100.933H340.648V81.392C339.88 79.1044 337.447 79.8033 336.326 80.4388L328.643 88.0644L321.921 81.392Z" fill="#1DACD9"/>
<path d="M335.367 100.932H340.649V83.704L335.367 89.4934V100.932Z" fill="#1089C0"/>
<path d="M353.617 100.332V93.6962L352.958 92.7481L344.396 80.4235H351.19L356.043 88.9559L361.381 80.4235H363.807C366.136 80.4235 366.719 81.6876 366.719 82.3196L358.954 93.6962V100.332H353.617Z" fill="#1DACD9"/>
<path d="M353.614 100.333V93.6962L352.956 92.7482C353.66 91.8001 355.264 89.7144 356.04 88.956L358.709 84.6898L361.378 80.4236H363.805C366.134 80.4236 366.716 81.6876 366.716 82.3197L358.952 93.6962V100.333H353.614Z" fill="#1089C0"/>
<path d="M159.107 88.4386L138.732 52.9533C137.793 51.3178 138.974 49.2786 140.86 49.2786H160.817C162.172 49.2786 163.271 50.3769 163.271 51.7318V87.3283C163.271 87.8666 163.076 88.3867 162.722 88.7927C161.716 89.9487 159.87 89.7679 159.107 88.4386Z" fill="#1089C0"/>
<path d="M73.9036 10.2414L34.2794 90.7536C34.1795 90.9566 34.0947 91.1725 34.0312 91.3896C29.7676 105.971 35.0524 113.114 40.8249 115.162C53.9375 119.815 74.1163 110.903 82.999 105.616C95.9001 96.0984 105.417 98.6363 111.974 101.597C118.599 105.663 120.02 105.116 119.905 104.102C119.875 103.835 119.724 103.599 119.574 103.375L99.805 73.7214C99.5996 73.4133 99.3593 73.123 99.0486 72.9215C96.0793 70.9961 91.7135 73.783 89.568 74.7216L77.4105 80.3679C74.0477 81.9296 70.5094 78.5684 71.8966 75.1299L80.5568 53.6637C80.6339 53.4727 80.7279 53.2821 80.8352 53.1063C86.4037 43.9848 93.2716 47.1965 97.25 53.3768L139.177 115.463C140.009 116.695 141.455 117.411 142.914 117.127C154.608 114.852 155.584 104.185 154.972 94.8945C154.932 94.2942 154.753 93.7122 154.456 93.189L107.109 9.80921C95.625 -7.66675 80.7435 2.07671 74.4232 9.44516C74.2149 9.68809 74.0449 9.95428 73.9036 10.2414Z" fill="#1DACD9"/>
<path d="M155.189 94.6465L107.113 9.9093L102.183 35.0843L98.3252 54.3673L139.736 116.666C153.257 118.984 157.237 102.242 155.189 94.6465Z" fill="#FFA110"/>
<path d="M155.189 94.6468L128.533 47.5166L123.897 67.2186L119.648 86.1479L139.736 116.667C153.257 118.984 157.237 102.242 155.189 94.6468Z" fill="#1089C0"/>
<path d="M76.9822 80.6135C50.2001 93.201 42.1279 80.6135 43.7347 72.5789L57.1257 46.6004L78.8569 58.1167L72.6971 74.4537C70.5545 80.0779 74.5717 80.6135 76.9822 80.6135Z" fill="url(#paint1_linear_1229_7489)"/>
<path d="M45.6486 118.644C21.277 110.342 35.7392 89.7195 44.3095 72.0434C46.0235 88.3268 60.825 85.613 68.4133 82.4885L94.9274 72.0435C97.927 70.9722 99.9267 73.5611 100.552 74.9895L119.567 103.378C120.424 105.735 118.495 105.075 117.424 104.45C105.212 95.8794 93.2312 99.986 88.7676 103.111C67.5563 118.108 50.6479 119.983 45.6486 118.644Z" fill="#1089C0"/>
<path d="M110.46 89.9874C108.317 89.9874 99.1221 96.9507 94.9263 99.8967C107.514 97.4864 113.941 102.843 116.62 104.182C119.298 105.521 120.369 104.985 119.833 103.646L110.46 89.9874Z" fill="#1089C0"/>
<path d="M153.096 108.237C144.298 86.5802 127.618 85.1946 120.286 87.3095L140.829 117.12C149.797 116.781 152.743 111.057 153.096 108.237Z" fill="url(#paint2_linear_1229_7489)"/>
<defs>
<linearGradient id="paint0_linear_1229_7489" x1="206.671" y1="80.1213" x2="195.811" y2="105.46" gradientUnits="userSpaceOnUse">
<stop stop-color="#FE8F1D"/>
<stop offset="1" stop-color="#FFB500"/>
</linearGradient>
<linearGradient id="paint1_linear_1229_7489" x1="64.6246" y1="55.4385" x2="48.2876" y2="87.0412" gradientUnits="userSpaceOnUse">
<stop stop-color="#1DACD9"/>
<stop offset="1" stop-color="#106E98"/>
</linearGradient>
<linearGradient id="paint2_linear_1229_7489" x1="144.122" y1="86.7737" x2="136.6" y2="117.12" gradientUnits="userSpaceOnUse">
<stop stop-color="#0C73A3"/>
<stop offset="1" stop-color="#1DACD9"/>
</linearGradient>
</defs>
</svg>
