<svg xmlns="http://www.w3.org/2000/svg" xmlns:xlink="http://www.w3.org/1999/xlink" width="500" zoomAndPan="magnify" viewBox="0 0 375 374.999991" height="500" preserveAspectRatio="xMidYMid meet" version="1.0"><defs><clipPath id="53ecc6bbf4"><path d="M 2.136719 2.136719 L 372.636719 2.136719 L 372.636719 372.636719 L 2.136719 372.636719 Z M 2.136719 2.136719 " clip-rule="nonzero"/></clipPath></defs><g clip-path="url(#53ecc6bbf4)"><path fill="#ffa110" d="M 186.902344 75.164062 C 190.578125 75.035156 194.207031 76.292969 196.925781 79 L 280.832031 162.992188 C 286.6875 168.871094 287.039062 177.957031 281.605469 183.390625 L 269.136719 195.878906 C 263.703125 201.3125 254.621094 200.957031 248.769531 195.105469 L 213.71875 160.019531 L 213.71875 286.574219 C 213.71875 293.699219 208.429688 299.402344 201.84375 299.402344 L 172.414062 299.402344 C 165.828125 299.402344 160.5 293.699219 160.5 286.574219 L 160.5 160.019531 L 125.488281 195.105469 C 119.601562 200.960938 110.515625 201.3125 105.089844 195.878906 L 92.613281 183.390625 C 87.191406 177.957031 87.5625 168.871094 93.417969 162.992188 L 176.523438 79.785156 C 179.453125 76.855469 183.222656 75.292969 186.902344 75.164062 Z M 187.113281 1.898438 C 138.007812 1.898438 90.902344 21.429688 56.171875 56.1875 C 21.449219 90.96875 1.941406 138.105469 1.941406 187.296875 C 1.941406 236.4375 21.449219 283.605469 56.171875 318.367188 C 90.902344 353.125 138.007812 372.65625 187.113281 372.65625 C 236.242188 372.65625 283.328125 353.125 318.050781 318.367188 C 352.777344 283.605469 372.296875 236.4375 372.296875 187.296875 C 372.296875 138.105469 352.785156 90.96875 318.050781 56.1875 C 283.328125 21.433594 236.242188 1.898438 187.113281 1.898438 Z M 187.113281 1.898438 " fill-opacity="1" fill-rule="nonzero"/></g></svg>