<svg xmlns="http://www.w3.org/2000/svg" xmlns:xlink="http://www.w3.org/1999/xlink" width="500" zoomAndPan="magnify" viewBox="0 0 375 374.999991" height="500" preserveAspectRatio="xMidYMid meet" version="1.0"><defs><clipPath id="392c80fe03"><path d="M 2.777344 2.777344 L 372.527344 2.777344 L 372.527344 372.527344 L 2.777344 372.527344 Z M 2.777344 2.777344 " clip-rule="nonzero"/></clipPath></defs><g clip-path="url(#392c80fe03)"><path fill="#3bab5a" d="M 372.558594 187.667969 C 372.558594 190.691406 372.484375 193.71875 372.335938 196.738281 C 372.1875 199.761719 371.964844 202.777344 371.667969 205.789062 C 371.371094 208.800781 371 211.804688 370.558594 214.796875 C 370.113281 217.789062 369.597656 220.769531 369.007812 223.738281 C 368.414062 226.707031 367.753906 229.65625 367.015625 232.59375 C 366.28125 235.527344 365.476562 238.441406 364.597656 241.339844 C 363.71875 244.234375 362.769531 247.105469 361.75 249.957031 C 360.730469 252.804688 359.640625 255.625 358.484375 258.421875 C 357.328125 261.21875 356.101562 263.984375 354.808594 266.71875 C 353.511719 269.453125 352.152344 272.15625 350.726562 274.824219 C 349.300781 277.492188 347.808594 280.125 346.253906 282.71875 C 344.699219 285.316406 343.078125 287.871094 341.398438 290.386719 C 339.71875 292.902344 337.976562 295.375 336.171875 297.808594 C 334.371094 300.238281 332.507812 302.621094 330.589844 304.960938 C 328.671875 307.300781 326.695312 309.589844 324.664062 311.832031 C 322.628906 314.074219 320.542969 316.265625 318.40625 318.40625 C 316.265625 320.542969 314.074219 322.628906 311.832031 324.664062 C 309.589844 326.695312 307.300781 328.671875 304.960938 330.589844 C 302.621094 332.511719 300.238281 334.371094 297.808594 336.171875 C 295.375 337.976562 292.902344 339.71875 290.386719 341.398438 C 287.871094 343.078125 285.316406 344.699219 282.71875 346.253906 C 280.125 347.808594 277.492188 349.300781 274.824219 350.726562 C 272.15625 352.152344 269.453125 353.511719 266.71875 354.808594 C 263.984375 356.101562 261.21875 357.328125 258.421875 358.484375 C 255.625 359.640625 252.804688 360.730469 249.957031 361.75 C 247.105469 362.769531 244.234375 363.71875 241.339844 364.597656 C 238.441406 365.476562 235.527344 366.28125 232.59375 367.015625 C 229.65625 367.753906 226.707031 368.414062 223.738281 369.007812 C 220.769531 369.597656 217.789062 370.113281 214.796875 370.558594 C 211.804688 371 208.800781 371.371094 205.789062 371.667969 C 202.777344 371.964844 199.761719 372.1875 196.738281 372.335938 C 193.71875 372.484375 190.691406 372.558594 187.667969 372.558594 C 184.640625 372.558594 181.617188 372.484375 178.59375 372.335938 C 175.574219 372.1875 172.554688 371.964844 169.542969 371.667969 C 166.535156 371.371094 163.53125 371 160.539062 370.558594 C 157.546875 370.113281 154.566406 369.597656 151.597656 369.007812 C 148.628906 368.414062 145.675781 367.753906 142.742188 367.015625 C 139.808594 366.28125 136.890625 365.476562 133.996094 364.597656 C 131.101562 363.71875 128.226562 362.769531 125.378906 361.75 C 122.53125 360.730469 119.707031 359.640625 116.914062 358.484375 C 114.117188 357.328125 111.351562 356.101562 108.617188 354.808594 C 105.878906 353.511719 103.179688 352.152344 100.511719 350.726562 C 97.839844 349.300781 95.210938 347.808594 92.613281 346.253906 C 90.019531 344.699219 87.464844 343.078125 84.949219 341.398438 C 82.429688 339.71875 79.957031 337.976562 77.527344 336.171875 C 75.097656 334.371094 72.710938 332.507812 70.375 330.589844 C 68.035156 328.671875 65.742188 326.695312 63.503906 324.664062 C 61.261719 322.628906 59.070312 320.542969 56.929688 318.40625 C 54.789062 316.265625 52.703125 314.074219 50.671875 311.832031 C 48.640625 309.589844 46.664062 307.300781 44.746094 304.960938 C 42.824219 302.621094 40.964844 300.238281 39.160156 297.808594 C 37.359375 295.375 35.617188 292.902344 33.9375 290.386719 C 32.253906 287.871094 30.636719 285.316406 29.082031 282.71875 C 27.523438 280.125 26.035156 277.492188 24.609375 274.824219 C 23.179688 272.15625 21.820312 269.453125 20.527344 266.71875 C 19.234375 263.984375 18.007812 261.21875 16.851562 258.421875 C 15.691406 255.625 14.605469 252.804688 13.585938 249.957031 C 12.566406 247.105469 11.617188 244.234375 10.738281 241.339844 C 9.859375 238.441406 9.050781 235.527344 8.316406 232.59375 C 7.582031 229.65625 6.917969 226.707031 6.328125 223.738281 C 5.738281 220.769531 5.222656 217.789062 4.777344 214.796875 C 4.332031 211.804688 3.964844 208.800781 3.667969 205.789062 C 3.371094 202.777344 3.148438 199.761719 3 196.738281 C 2.851562 193.71875 2.777344 190.691406 2.777344 187.667969 C 2.777344 184.640625 2.851562 181.617188 3 178.59375 C 3.148438 175.574219 3.371094 172.554688 3.667969 169.542969 C 3.964844 166.535156 4.332031 163.53125 4.777344 160.539062 C 5.222656 157.546875 5.738281 154.566406 6.328125 151.597656 C 6.917969 148.628906 7.582031 145.675781 8.316406 142.742188 C 9.050781 139.808594 9.859375 136.890625 10.738281 133.996094 C 11.617188 131.101562 12.566406 128.226562 13.585938 125.378906 C 14.605469 122.53125 15.691406 119.707031 16.851562 116.914062 C 18.007812 114.117188 19.234375 111.351562 20.527344 108.617188 C 21.820312 105.878906 23.179688 103.179688 24.609375 100.511719 C 26.035156 97.839844 27.523438 95.210938 29.082031 92.613281 C 30.636719 90.019531 32.253906 87.464844 33.9375 84.949219 C 35.617188 82.429688 37.359375 79.957031 39.160156 77.527344 C 40.964844 75.097656 42.824219 72.710938 44.746094 70.375 C 46.664062 68.035156 48.640625 65.742188 50.671875 63.503906 C 52.703125 61.261719 54.789062 59.070312 56.929688 56.929688 C 59.070312 54.789062 61.261719 52.703125 63.503906 50.671875 C 65.742188 48.640625 68.035156 46.664062 70.375 44.746094 C 72.710938 42.824219 75.097656 40.964844 77.527344 39.160156 C 79.957031 37.359375 82.429688 35.617188 84.949219 33.9375 C 87.464844 32.253906 90.019531 30.636719 92.613281 29.082031 C 95.210938 27.523438 97.839844 26.035156 100.511719 24.609375 C 103.179688 23.179688 105.878906 21.820312 108.617188 20.527344 C 111.351562 19.234375 114.117188 18.007812 116.914062 16.851562 C 119.707031 15.691406 122.53125 14.605469 125.378906 13.585938 C 128.226562 12.566406 131.101562 11.617188 133.996094 10.738281 C 136.890625 9.859375 139.808594 9.050781 142.742188 8.316406 C 145.675781 7.582031 148.628906 6.917969 151.597656 6.328125 C 154.566406 5.738281 157.546875 5.222656 160.539062 4.777344 C 163.53125 4.332031 166.535156 3.964844 169.542969 3.667969 C 172.554688 3.371094 175.574219 3.148438 178.59375 3 C 181.617188 2.851562 184.640625 2.777344 187.667969 2.777344 C 190.691406 2.777344 193.71875 2.851562 196.738281 3 C 199.761719 3.148438 202.777344 3.371094 205.789062 3.667969 C 208.800781 3.964844 211.804688 4.332031 214.796875 4.777344 C 217.789062 5.222656 220.769531 5.738281 223.738281 6.328125 C 226.707031 6.917969 229.65625 7.582031 232.59375 8.316406 C 235.527344 9.050781 238.441406 9.859375 241.339844 10.738281 C 244.234375 11.617188 247.105469 12.566406 249.957031 13.585938 C 252.804688 14.605469 255.625 15.691406 258.421875 16.851562 C 261.21875 18.007812 263.984375 19.234375 266.71875 20.527344 C 269.453125 21.820312 272.15625 23.179688 274.824219 24.609375 C 277.492188 26.035156 280.125 27.523438 282.71875 29.082031 C 285.316406 30.636719 287.871094 32.253906 290.386719 33.9375 C 292.902344 35.617188 295.375 37.359375 297.808594 39.160156 C 300.238281 40.964844 302.621094 42.824219 304.960938 44.746094 C 307.300781 46.664062 309.589844 48.640625 311.832031 50.671875 C 314.074219 52.703125 316.265625 54.789062 318.40625 56.929688 C 320.542969 59.070312 322.628906 61.261719 324.664062 63.503906 C 326.695312 65.742188 328.671875 68.035156 330.589844 70.375 C 332.511719 72.710938 334.371094 75.097656 336.171875 77.527344 C 337.976562 79.957031 339.71875 82.429688 341.398438 84.949219 C 343.078125 87.464844 344.699219 90.019531 346.253906 92.613281 C 347.808594 95.210938 349.300781 97.839844 350.726562 100.511719 C 352.152344 103.179688 353.511719 105.878906 354.808594 108.617188 C 356.101562 111.351562 357.328125 114.117188 358.484375 116.914062 C 359.640625 119.707031 360.730469 122.53125 361.75 125.378906 C 362.769531 128.226562 363.71875 131.101562 364.597656 133.996094 C 365.476562 136.890625 366.28125 139.808594 367.015625 142.742188 C 367.753906 145.675781 368.414062 148.628906 369.007812 151.597656 C 369.597656 154.566406 370.113281 157.546875 370.558594 160.539062 C 371 163.53125 371.371094 166.535156 371.667969 169.542969 C 371.964844 172.554688 372.1875 175.574219 372.335938 178.59375 C 372.484375 181.617188 372.558594 184.640625 372.558594 187.667969 Z M 372.558594 187.667969 " fill-opacity="1" fill-rule="nonzero"/></g><path fill="#3bab5a" d="M 157.3125 133.679688 C 168.660156 131.136719 169.457031 137.578125 172.660156 145.351562 C 174.070312 148.765625 175.363281 152.070312 176.835938 155.484375 C 178.761719 159.9375 177.628906 162.25 175.167969 165.570312 C 168.984375 173.921875 166.636719 171.59375 174.667969 182.292969 C 181.515625 191.4375 195.339844 203.660156 206.285156 206.332031 C 208.808594 206.949219 209.667969 205.894531 210.832031 204.648438 C 213.277344 202.027344 219.089844 194.078125 220.5 193.558594 C 223.671875 192.425781 237.269531 199.90625 240.378906 201.410156 C 244.394531 203.371094 247.210938 203.433594 247.097656 208.308594 C 246.820312 220.238281 237.964844 228.367188 226.648438 229.644531 C 211.757812 231.328125 187.8125 220.15625 176.707031 210.621094 C 165.199219 200.746094 151.957031 185.515625 146.191406 171.785156 C 141.546875 160.714844 141.722656 149.269531 149.285156 139.636719 C 151.519531 136.769531 153.703125 134.4375 157.3125 133.628906 Z M 116.5 260.582031 C 121.875 259.722656 128.933594 257.425781 134.339844 255.984375 C 144.054688 253.394531 147.066406 251.289062 151.679688 254.023438 C 207.917969 287.453125 278.84375 247.324219 280.25 182.585938 C 280.847656 154.917969 267.898438 132.335938 254.429688 119.738281 C 247.355469 113.117188 239 106.464844 227.507812 101.949219 C 149.609375 71.449219 79.527344 155.9375 123.414062 226.730469 C 125.617188 230.292969 124.789062 230.164062 123.511719 234.808594 C 121.617188 241.738281 117.570312 254.882812 116.519531 260.566406 Z M 116.5 260.582031 " fill-opacity="1" fill-rule="evenodd"/><path fill="#ffffff" d="M 116.519531 260.582031 C 117.570312 254.898438 121.601562 241.738281 123.511719 234.824219 C 124.789062 230.195312 125.617188 230.324219 123.414062 226.746094 C 79.542969 155.953125 149.609375 71.464844 227.507812 101.964844 C 239.019531 106.464844 247.355469 113.132812 254.429688 119.753906 C 267.898438 132.351562 280.847656 154.933594 280.25 182.601562 C 278.84375 247.339844 207.917969 287.46875 151.679688 254.042969 C 147.066406 251.304688 144.070312 253.410156 134.34375 256 C 128.933594 257.441406 121.875 259.738281 116.5 260.597656 Z M 91.960938 284.847656 C 98.0625 284.007812 107.339844 281.027344 113.570312 279.390625 C 120.984375 277.433594 128.078125 275.570312 135.363281 273.628906 C 148.554688 270.101562 144.121094 270.40625 155.597656 275.34375 C 195.761719 292.636719 235.632812 280.800781 263.898438 256.613281 C 267.558594 253.472656 270.941406 250.125 274.050781 246.125 C 287.4375 228.964844 295.953125 210.753906 297.394531 187.003906 C 298.785156 164.355469 292.066406 139.992188 279.585938 122.6875 L 270.488281 111.144531 C 269.257812 109.832031 268.09375 109.234375 266.894531 107.875 C 263.203125 103.664062 257.3125 99.066406 252.226562 95.617188 C 196.167969 57.640625 116.90625 84.464844 96.785156 152.003906 C 92.21875 167.300781 91.3125 184.460938 94.5 200.539062 C 96.070312 208.40625 98.175781 214.75 101.058594 221.566406 C 105.929688 233.078125 107.339844 228.074219 103.695312 241.480469 C 101.769531 248.585938 99.746094 256 97.789062 263.074219 C 95.925781 269.839844 93.125 278.242188 91.945312 284.898438 Z M 91.960938 284.847656 " fill-opacity="1" fill-rule="evenodd"/><path fill="#ffffff" d="M 157.3125 133.679688 C 153.703125 134.488281 151.519531 136.820312 149.285156 139.683594 C 141.722656 149.316406 141.546875 160.761719 146.191406 171.835938 C 151.957031 185.578125 165.199219 200.796875 176.707031 210.671875 C 187.8125 220.207031 211.757812 231.375 226.648438 229.691406 C 237.964844 228.414062 246.820312 220.289062 247.097656 208.355469 C 247.210938 203.484375 244.410156 203.417969 240.378906 201.460938 C 237.269531 199.953125 223.65625 192.476562 220.5 193.609375 C 219.089844 194.109375 213.277344 202.074219 210.832031 204.699219 C 209.667969 205.945312 208.808594 206.996094 206.285156 206.382812 C 195.355469 203.710938 181.53125 191.472656 174.667969 182.339844 C 166.636719 171.640625 168.984375 173.972656 175.167969 165.617188 C 177.628906 162.285156 178.746094 159.96875 176.835938 155.53125 C 175.363281 152.101562 174.070312 148.816406 172.660156 145.398438 C 169.457031 137.628906 168.660156 131.183594 157.3125 133.726562 Z M 157.3125 133.679688 " fill-opacity="1" fill-rule="evenodd"/></svg>