<svg width="125" height="98" viewBox="0 0 125 98" fill="none" xmlns="http://www.w3.org/2000/svg">
<g clip-path="url(#clip0_1061_2609)">
<path d="M50.9548 23.1103C29.6951 33.0583 17.3558 50.4836 22.5951 61.7739C27.8344 73.0641 48.6374 73.8773 69.8971 63.9293C91.1569 53.9814 104.823 37.0393 99.5835 25.7491C94.3442 14.4588 72.2146 13.1624 50.9548 23.1103Z" fill="#5BC7E3"/>
<path d="M83.4456 43.2369C83.5152 19.8348 73.0071 0.930887 60.5232 0.968156C48.0393 1.00542 38.3818 19.9767 38.3121 43.3789C38.2425 66.7811 48.7506 85.685 61.2345 85.6477C73.7184 85.6104 83.3759 66.6391 83.4456 43.2369Z" fill="#5BC7E3"/>
<path d="M70.6258 22.7383C49.6337 12.4831 28.7334 13.8469 23.196 25.0588C17.6586 36.2707 30.1398 53.6224 51.1319 63.8776C72.124 74.1327 93.0242 72.7689 98.5617 61.5571C104.099 50.3452 91.6179 32.9934 70.6258 22.7383Z" fill="#5BC7E3"/>
<path d="M48.4672 29.1254C44.2393 31.1038 40.3391 33.3799 36.8362 35.8486C35.9624 40.4335 35.4837 45.367 35.4797 50.5049C35.4759 55.414 35.829 60.1011 36.5225 64.4643C40.1493 67.0895 44.2007 69.5358 48.5855 71.6931C51.5699 73.1615 54.5554 74.4041 57.5003 75.4258C60.9699 74.3436 64.5088 72.9749 68.0475 71.3191C72.5187 69.2269 76.6407 66.8395 80.3241 64.2657C81.055 60.0348 81.4523 55.5256 81.4559 50.8468C81.4597 45.9561 81.0605 41.236 80.3157 36.8169C76.7138 34.2184 72.6957 31.7966 68.3502 29.6585C64.8576 27.9401 61.3559 26.5328 57.9152 25.4291C54.7915 26.4178 51.6248 27.6479 48.4672 29.1254ZM34.9958 50.5055C34.9997 45.5239 35.4473 40.7296 36.2685 36.2529C30.9361 40.09 26.5567 44.3711 23.3856 48.7115C23.0045 49.2332 22.6409 49.7555 22.2954 50.2777C22.6814 50.8553 23.0901 51.4334 23.5212 52.0112C26.6215 56.1678 30.8591 60.2904 35.9697 64.0603C35.321 59.8043 34.9921 55.2549 34.9958 50.5055ZM22.0065 49.8388C22.3221 49.367 22.6519 48.8957 22.9954 48.4254C26.281 43.9283 30.8419 39.5039 36.398 35.5654C37.3333 30.7291 38.7067 26.277 40.4278 22.3773C39.4698 22.3642 38.5308 22.3807 37.6131 22.4265C32.4594 22.6839 27.9976 23.8648 24.606 25.912C24.8326 26.4905 24.9568 27.1319 24.9562 27.8276C24.955 29.4468 24.196 31.0325 23.05 32.2106C21.904 33.3886 20.3494 34.1811 18.7308 34.1823C18.5324 34.1825 18.3381 34.1696 18.1481 34.1447C16.9392 38.819 18.4105 44.2934 22.0065 49.8388ZM23.1334 52.3022C22.7403 51.7752 22.3649 51.2472 22.0079 50.7187C17.7334 57.3744 16.406 63.9882 18.8344 69.2213C21.5054 74.977 28.2696 78.0896 37.1847 78.4597C38.066 78.4963 38.9676 78.506 39.8876 78.4889C38.1729 74.442 36.8952 69.8054 36.0764 64.74C30.7557 60.8675 26.3448 56.6077 23.1334 52.3022ZM36.6333 65.1415C37.4615 70.0615 38.7281 74.5563 40.4089 78.4763C45.4259 78.3285 50.9692 77.3925 56.7185 75.6652C53.9565 74.6798 51.163 73.5022 48.3715 72.1287C44.123 70.0384 40.1826 67.6767 36.6333 65.1415ZM57.4913 75.9362C51.5545 77.7749 45.8151 78.7815 40.6175 78.9551C41.4522 80.8405 42.3849 82.5882 43.4127 84.1809C43.5538 84.3994 43.6972 84.615 43.8429 84.8275C44.9886 83.6509 46.5421 82.8596 48.1595 82.8584C49.7943 82.8571 51.1551 83.7394 52.0984 85.0003C53.0405 86.2596 53.5814 87.9138 53.5801 89.5097C53.5791 90.7916 53.1786 91.8531 52.489 92.665C52.6232 92.7319 52.7575 92.7965 52.8916 92.8588C53.3096 93.053 53.7141 93.2607 54.1082 93.463C54.1449 93.4818 54.1814 93.5006 54.2178 93.5193C54.6483 93.7401 55.0671 93.9527 55.4887 94.1387C56.3308 94.5104 57.1708 94.7701 58.0965 94.7694C64.4325 94.7644 70.2641 89.906 74.5285 81.9395C74.9492 81.1535 75.3544 80.3377 75.7429 79.494C75.1399 79.475 74.53 79.4444 73.9137 79.4024C68.7895 79.053 63.2152 77.9085 57.4913 75.9362ZM58.2737 75.6894C63.7408 77.519 69.0548 78.5848 73.9475 78.9184C74.627 78.9648 75.2982 78.997 75.9604 79.0151C77.8045 74.8947 79.2573 70.1337 80.2048 64.938C76.5977 67.4244 72.586 69.7303 68.2514 71.7586C64.9086 73.3228 61.5633 74.6331 58.2737 75.6894ZM81.9399 50.8462C81.9363 55.3758 81.5659 59.7506 80.8814 63.8725C85.9919 60.2316 90.2284 56.234 93.3431 52.1818C93.7145 51.6986 94.0698 51.2149 94.4086 50.7312C94.0917 50.2677 93.7603 49.804 93.4145 49.3404C90.2955 45.1588 86.0254 41.0116 80.8735 37.2232C81.5713 41.5303 81.9435 46.1104 81.9399 50.8462ZM94.6979 51.1605C94.387 51.6002 94.063 52.0393 93.7262 52.4774C90.4987 56.6763 86.0881 60.8073 80.7662 64.5473C79.8291 69.8851 78.3629 74.784 76.4848 79.0266C83.1573 79.1357 88.8828 77.8024 92.9307 75.1352C92.9621 75.1146 92.9934 75.0937 93.0247 75.0728C92.6516 74.2256 92.4634 73.2425 92.4642 72.1931C92.4667 69.0068 94.5357 66.2648 97.7839 66.2622C98.183 66.2619 98.58 66.3079 98.9693 66.3947C99.8398 61.8034 98.2502 56.5078 94.6979 51.1605ZM93.8023 49.0494C94.1139 49.4671 94.4143 49.8855 94.7033 50.3043C99.1075 43.8301 100.537 37.3786 98.1012 32.1304C95.4287 26.3712 88.555 23.0341 79.5345 22.438C78.6198 22.3776 77.6836 22.3454 76.7282 22.3418C78.4919 26.5161 79.8661 31.3197 80.7596 36.5392C86.1248 40.431 90.5708 44.717 93.8023 49.0494ZM80.1977 36.1355C79.2948 31.0587 77.9333 26.3938 76.2022 22.3427C70.8248 22.3808 64.8634 23.3117 58.7174 25.1802C61.971 26.2577 65.2725 27.6034 68.5641 29.2229C72.7709 31.2927 76.6756 33.6286 80.1977 36.1355ZM57.9171 24.9203C64.2573 22.928 70.4253 21.9222 75.9927 21.8595C75.6463 21.0721 75.2857 20.3088 74.9117 19.571C70.8267 11.5151 65.1705 6.57726 58.8391 6.58222C52.5031 6.58719 46.6715 11.4456 42.4072 19.4121C41.978 20.2138 41.5651 21.0464 41.1695 21.908C46.352 22.0583 52.0485 23.0514 57.9171 24.9203ZM48.2633 28.6859C51.2184 27.3031 54.1829 26.1351 57.1146 25.1774C51.4402 23.4299 45.9473 22.5113 40.9525 22.3875C39.2678 26.1631 37.9112 30.4745 36.9701 35.1639C40.3908 32.7887 44.1762 30.5984 48.2633 28.6859ZM24.4723 27.8283C24.4728 27.2326 24.3716 26.6786 24.185 26.1742C21.8968 27.6435 20.1305 29.528 19.0121 31.8084C18.7158 32.4126 18.4723 33.0344 18.2803 33.6719C18.4282 33.6888 18.5786 33.6974 18.7314 33.6972C20.1933 33.6961 21.629 32.9772 22.7039 31.8722C23.7788 30.7673 24.4712 29.2982 24.4723 27.8283ZM17.8004 33.5866C18.0023 32.9062 18.2608 32.2417 18.5779 31.5951C19.7528 29.1994 21.6055 27.2394 23.9894 25.7238C23.1349 24.0215 21.2385 22.9906 19.0501 22.9923C17.5514 22.9935 16.2358 23.4052 15.2997 24.1706C14.3693 24.9312 13.7952 26.0556 13.7941 27.5304C13.7929 29.0237 14.3013 30.5753 15.1792 31.7488C15.8609 32.6601 16.7562 33.333 17.8004 33.5866ZM44.1864 85.1685C44.1659 85.1895 44.1456 85.2106 44.1255 85.2319C46.4196 88.4532 49.2297 90.9322 52.046 92.4365C52.7047 91.7043 53.0953 90.7265 53.0962 89.5103C53.0974 88.017 52.589 86.4654 51.711 85.2919C50.8343 84.1199 49.6045 83.3423 48.1589 83.3435C46.697 83.3446 45.2613 84.0635 44.1864 85.1685ZM51.6832 92.7921C48.8663 91.2572 46.0806 88.7855 43.7967 85.6055C42.9471 86.6459 42.419 87.9288 42.418 89.2124C42.4157 92.1335 44.8564 94.0507 47.8401 94.0483C49.3388 94.0472 50.6544 93.6355 51.5906 92.8701C51.6219 92.8445 51.6528 92.8185 51.6832 92.7921ZM92.9482 72.1925C92.9474 73.1506 93.1131 74.0334 93.4305 74.7901C95.3363 73.4134 96.9452 71.5381 97.9236 69.5432C98.3441 68.6857 98.6581 67.7928 98.8698 66.8698C98.5115 66.7894 98.1474 66.747 97.7833 66.7473C94.8706 66.7496 92.9505 69.2004 92.9482 72.1925ZM99.3377 66.9972C99.118 67.9472 98.7931 68.8688 98.3578 69.7565C97.3304 71.8513 95.6401 73.8088 93.6422 75.2343C93.7807 75.4918 93.9391 75.7311 94.1168 75.9496C94.8737 76.8804 95.9939 77.4533 97.4646 77.4522C98.9535 77.451 100.503 76.9385 101.676 76.056C102.847 75.1747 103.625 73.94 103.626 72.4903C103.628 71.0242 102.913 69.5868 101.813 68.5119C101.106 67.8212 100.249 67.289 99.3377 66.9972Z" stroke="black" stroke-width="0.484512"/>
<circle r="5.5" transform="matrix(1 0 0 -1 48.5 87.625)" fill="#FFA110"/>
<circle r="5.5" transform="matrix(1 0 0 -1 96.5 71.625)" fill="#FFA110"/>
<circle r="5.5" transform="matrix(1 0 0 -1 20.5 27.625)" fill="#FFA110"/>
<path d="M43 44.2799C43 46.9558 45.1692 49.125 47.8451 49.125H69.1549C71.8308 49.125 74 46.9558 74 44.2799V41.9701C74 39.2942 71.8308 37.125 69.1549 37.125H47.8451C45.1692 37.125 43 39.2942 43 41.9701V44.2799Z" fill="#119BC7"/>
<path d="M43 57.125C43 59.4504 44.6864 61.125 47 61.125H69C71.3136 61.125 74 59.4504 74 57.125V53.125C74 50.7996 71.3136 49.125 69 49.125H47C44.6864 49.125 43 50.7996 43 53.125V57.125Z" fill="#119BC7"/>
<path d="M48 54.125C48 55.1714 48.9589 56.125 50 56.125H52C53.0411 56.125 54 55.1714 54 54.125C54 53.0786 53.0411 53.125 52 53.125H50C48.9589 53.125 48 53.0786 48 54.125Z" fill="#119BC7"/>
<path d="M60 54.125C60 55.1714 60.9589 56.125 62 56.125H68C69.0411 56.125 69 55.1714 69 54.125C69 53.0786 69.0411 53.125 68 53.125H62C60.9589 53.125 60 53.0786 60 54.125Z" fill="#119BC7"/>
<path d="M48 43.125C48 44.1714 48.9589 45.125 50 45.125H52C53.0411 45.125 54 44.1714 54 43.125C54 42.0786 53.0411 41.125 52 41.125H50C48.9589 41.125 48 42.0786 48 43.125Z" fill="#119BC7"/>
<path d="M60 43.125C60 44.1714 60.9589 45.125 62 45.125H68C69.0411 45.125 69 44.1714 69 43.125C69 42.0786 69.0411 41.125 68 41.125H62C60.9589 41.125 60 42.0786 60 43.125Z" fill="#119BC7"/>
<path d="M41.2423 45.2799C41.2423 47.822 43.303 49.8827 45.8451 49.8827H69H69.1549C71.697 49.8827 73.7577 47.822 73.7577 45.2799V41.9701C73.7577 39.428 71.697 37.3673 69.1549 37.3673H45.8451C43.303 37.3673 41.2423 39.428 41.2423 41.9701V45.2799ZM72.2811 51.3762C71.3853 50.7248 70.1866 50.3673 69 50.3673H45.8451H45C43.8171 50.3673 42.8838 50.722 42.2468 51.3525C41.6103 51.9826 41.2423 52.9152 41.2423 54.125V58.125C41.2423 59.3386 41.6132 60.5367 42.2711 61.4256C42.9264 62.3109 43.8591 62.8827 45 62.8827H69C70.1527 62.8827 71.3444 62.2994 72.2529 61.3978C73.1612 60.4963 73.7577 59.305 73.7577 58.125V54.125C73.7577 52.9568 73.1727 52.0246 72.2811 51.3762ZM47.2423 56.125C47.2423 57.1228 48.0235 57.8827 49 57.8827H51C51.9765 57.8827 52.7577 57.1228 52.7577 56.125C52.7577 55.1272 51.9765 54.3673 51 54.3673H49C48.0235 54.3673 47.2423 55.1272 47.2423 56.125ZM49 58.3673C47.7599 58.3673 46.7577 57.3944 46.7577 56.125C46.7577 54.8556 47.7599 53.8827 49 53.8827H51C52.2401 53.8827 53.2423 54.8556 53.2423 56.125C53.2423 57.3944 52.2401 58.3673 51 58.3673H49ZM59.2423 56.125C59.2423 57.1228 60.0235 57.8827 61 57.8827H67C67.9765 57.8827 68.7577 57.1228 68.7577 56.125C68.7577 55.1272 67.9765 54.3673 67 54.3673H61C60.0235 54.3673 59.2423 55.1272 59.2423 56.125ZM61 58.3673C59.7599 58.3673 58.7577 57.3944 58.7577 56.125C58.7577 54.8556 59.7599 53.8827 61 53.8827H67C68.2401 53.8827 69.2423 54.8556 69.2423 56.125C69.2423 57.3944 68.2401 58.3673 67 58.3673H61ZM47.2423 44.125C47.2423 45.1228 48.0235 45.8827 49 45.8827H51C51.9765 45.8827 52.7577 45.1228 52.7577 44.125C52.7577 43.1272 51.9765 42.3673 51 42.3673H49C48.0235 42.3673 47.2423 43.1272 47.2423 44.125ZM49 46.3673C47.7599 46.3673 46.7577 45.3944 46.7577 44.125C46.7577 42.8556 47.7599 41.8827 49 41.8827H51C52.2401 41.8827 53.2423 42.8556 53.2423 44.125C53.2423 45.3944 52.2401 46.3673 51 46.3673H49ZM59.2423 44.125C59.2423 45.1228 60.0235 45.8827 61 45.8827H67C67.9765 45.8827 68.7577 45.1228 68.7577 44.125C68.7577 43.1272 67.9765 42.3673 67 42.3673H61C60.0235 42.3673 59.2423 43.1272 59.2423 44.125ZM61 46.3673C59.7599 46.3673 58.7577 45.3944 58.7577 44.125C58.7577 42.8556 59.7599 41.8827 61 41.8827H67C68.2401 41.8827 69.2423 42.8556 69.2423 44.125C69.2423 45.3944 68.2401 46.3673 67 46.3673H61Z" stroke="black" stroke-width="0.484512"/>
</g>
<defs>
<clipPath id="clip0_1061_2609">
<rect width="125" height="97" fill="white" transform="matrix(1 0 0 -1 0 97.125)"/>
</clipPath>
</defs>
</svg>
