<svg width="119" height="89" viewBox="0 0 119 89" fill="none" xmlns="http://www.w3.org/2000/svg">
<path d="M12 30.125C12 25.8865 15.6131 22.125 20 22.125H105C109.387 22.125 113 25.8865 113 30.125V81.125H12V30.125Z" fill="#1089C0"/>
<path d="M7 81.125H119C119 84.7277 115.729 88.125 112 88.125H14C10.2711 88.125 7 84.7277 7 81.125Z" fill="#1089C0"/>
<path d="M100 24.125C102.272 24.125 104 24.9415 104 27.125M14 24.125C11.7282 24.125 10 24.9415 10 27.125M14 24.3729H100C101.113 24.3729 102.056 24.5741 102.714 25.0125C103.357 25.4403 103.752 26.1101 103.752 27.125V72.125H104.248V27.125C104.248 25.9565 103.779 25.1262 102.989 24.5999C102.215 24.0842 101.159 23.8771 100 23.8771H14C12.8413 23.8771 11.7847 24.0842 11.0106 24.5999C10.2207 25.1262 9.7521 25.9565 9.7521 27.125V72.125H10.2479V27.125C10.2479 26.1101 10.6434 25.4403 11.2855 25.0125C11.9435 24.5741 12.8869 24.3729 14 24.3729ZM109 79.3729H109.248H115.747C115.611 82.8487 112.636 85.8771 109 85.8771H7C3.36444 85.8771 0.388618 82.8487 0.252749 79.3729H4.7521H5H109ZM5.2479 78.8771V26.125C5.2479 21.8914 8.59686 18.3729 13 18.3729H101C105.403 18.3729 108.752 21.8914 108.752 26.125V78.8771H5.2479Z" stroke="black" stroke-width="0.495807"/>
<path d="M84 5.125C84 6.53833 82.4815 7.125 81 7.125C79.5185 7.125 79 6.53833 79 5.125C79 3.71167 79.5185 2.125 81 2.125C82.4815 2.125 84 3.71167 84 5.125Z" fill="#FFA110"/>
<path d="M63 49.125C63 50.5383 62.4815 52.125 61 52.125C59.5185 52.125 58 50.5383 58 49.125C58 47.7117 59.5185 47.125 61 47.125C62.4815 47.125 63 47.7117 63 49.125Z" fill="#FFA110"/>
<path d="M88.9998 30.1251C88.3602 38.3746 82.1977 42.9794 78.9998 44.1251C77.3976 44.6677 75.4613 44.889 73.9998 45.1251C72.8198 45.3158 72.0845 45.1034 70.9998 45.1251C69.955 45.1461 68.9533 45.2357 67.9998 45.1251C61.5014 44.3714 56.7462 40.5211 54.9998 38.1251C53.7511 36.1601 53.4461 34.317 52.9998 32.1251C52.7205 30.7537 52.0734 29.2578 51.9998 28.1251C51.9349 27.1274 51.966 25.7537 51.9998 25.1251C52.7992 20.6949 57.6679 16.0347 59.9998 14.1251C62.5799 12.4964 65.5605 11.5044 67.9998 11.1251C69.0266 10.9655 70.0311 11.123 70.9998 11.1251C72.0228 11.1275 73.0642 10.9828 73.9998 11.1251C77.377 11.6389 79.4592 13.036 80.9998 14.1251C85.4043 16.8604 88.1617 21.2973 88.9998 25.1251C89.1938 26.0113 88.9237 27.3681 88.9998 28.1251C89.0723 28.8465 89.0099 29.5836 88.9998 30.1251Z" fill="#FFA110"/>
<path d="M87.9999 28.1252C87.3374 36.6652 80.3123 40.9391 76.9999 42.1252C75.3404 42.6869 73.5137 42.8808 71.9999 43.1252M87.9999 28.1252C74.9159 39.9863 57.128 34.4084 49.9999 30.1252M87.9999 28.1252C88.0104 27.5647 87.075 26.872 86.9999 26.1252M48.9999 23.1252C49.828 18.539 55.5846 14.1021 57.9999 12.1252C60.6723 10.4392 62.4733 9.51783 64.9999 9.12525M48.9999 23.1252C64.5682 11.7386 80.8879 18.3808 86.9999 23.1252M48.9999 23.1252C48.9649 23.7759 48.9327 25.0924 48.9999 26.1252M49.9999 30.1252C50.4621 32.3943 50.7065 35.091 51.9999 37.1252C53.8088 39.6055 58.2689 42.3449 64.9999 43.1252M49.9999 30.1252C49.7106 28.7055 49.0761 27.2978 48.9999 26.1252M86.9999 23.1252C86.1318 19.1626 83.5621 14.9569 78.9999 12.1252C77.4042 10.9977 75.498 9.65713 71.9999 9.12525M86.9999 23.1252C87.2008 24.0427 86.9211 25.3415 86.9999 26.1252M64.9999 9.12525C59.6172 14.8608 52.0815 29.0412 64.9999 43.1252M64.9999 9.12525C66.0634 8.95999 67.9966 8.12298 68.9999 8.12525M64.9999 43.1252C65.9875 43.2397 67.9178 44.1469 68.9999 44.1252M71.9999 43.1252C76.5169 37.3691 83.217 23.0181 71.9999 9.12525M71.9999 43.1252C70.7777 43.3226 70.1234 44.1027 68.9999 44.1252M71.9999 9.12525C71.0308 8.9779 70.0595 8.12763 68.9999 8.12525M68.9999 8.12525V44.1252M50.9999 8.12525C54.1743 3.9965 63.7628 -2.56808 78.9999 3.12525M86.9999 9.12525C91.3082 12.9572 98.631 23.2642 92.9999 35.1252M90.9999 39.1252C90.1028 41.0362 87.1404 45.0693 82.9999 47.1252M80.9999 48.1252C77.8255 49.8385 69.1278 52.4975 62.9999 50.1252M50.9999 44.1252C47.4805 41.8848 40.5093 34.7771 41.9999 22.1252M42.9999 19.1252C43.3449 17.6756 45.35 13.9719 47.9999 11.1252M48.9999 26.1252H86.9999M83.9999 4.12525C83.9999 5.54456 83.4863 7.12525 81.9999 7.12525C80.5135 7.12525 78.9999 5.54456 78.9999 4.12525C78.9999 2.70593 80.5135 2.12525 81.9999 2.12525C83.4863 2.12525 83.9999 2.70593 83.9999 4.12525ZM63.9999 49.1252C63.9999 50.5446 62.4863 52.1252 60.9999 52.1252C59.5135 52.1252 57.9999 50.5446 57.9999 49.1252C57.9999 47.7059 59.5135 47.1252 60.9999 47.1252C62.4863 47.1252 63.9999 47.7059 63.9999 49.1252Z" stroke="black" stroke-width="0.495807"/>
<path d="M54.9998 11.125C57.695 7.6793 66.0627 2.37357 78.9998 7.12497M84.9998 11.125C88.6578 14.323 94.7809 23.2262 89.9998 33.125M88.9998 36.125C88.2381 37.7198 85.5153 41.4092 81.9998 43.125M79.9998 44.125C77.3046 45.5548 70.2028 48.1047 64.9998 46.125M54.9998 41.125C52.0116 39.2552 45.7342 32.6836 46.9998 22.125M47.9998 20.125C48.2928 18.9151 49.7499 15.5007 51.9998 13.125" stroke="#FFA110" stroke-width="0.991615"/>
<rect x="17" y="55.125" width="42" height="2" fill="white"/>
<rect x="17" y="59.125" width="42" height="2" fill="white"/>
<rect x="17" y="67.125" width="72" height="2" fill="white"/>
<rect x="17" y="70.125" width="62" height="2" fill="white"/>
</svg>
