<svg width="123" height="88" viewBox="0 0 123 88" fill="none" xmlns="http://www.w3.org/2000/svg">
<path d="M27 47.1246H36H45V49.1246C45 51.6098 42.5866 53.1246 40 53.1246H32C29.4134 53.1246 27 51.6098 27 49.1246V47.1246Z" fill="#40BE90"/>
<path d="M30 53.1246H41V62.1246H30V53.1246Z" fill="#40BE90"/>
<path d="M3 59.1246H13V85.1246H3V59.1246Z" fill="#40BE90"/>
<path d="M13 64.1246C15.0295 63.6746 18.6253 62.2846 19 60.1246V52.1246C21.0295 51.9746 25 53.0847 25 58.1246V62.1246H41C42.0148 62.2746 43.8127 62.3246 44 64.1246C44.0692 65.055 44.0519 66.7369 42 67.1246C43.2392 67.1234 44.2983 68.2617 44 70.1246C44.1502 70.9903 43.6982 71.9964 41 72.1246C42.4447 72.1325 44.6936 72.9586 44 75.1246C44 75.7246 43.6228 77.1246 41 77.1246C41.6245 77.7246 42.3747 78.8646 42 80.1246C41.8439 81.0246 41.1241 83.3046 40 83.1246H19C18.1414 82.8996 16.562 81.3846 16 80.1246H13V64.1246Z" fill="#40BE90"/>
<path d="M93 78.1246L99 74.1246L106 87.1246L114 82.1246L103 71.1246L109 67.1246L95 64.1246L93 78.1246Z" fill="#40BE90"/>
<path d="M34 46.1251C40.4367 45.5101 55.9848 46.7452 68 54.1251L86 64.1251M40 67.1251C42.0889 66.7277 43.0704 65.0787 43 64.1251C42.8093 62.2801 40.0331 61.2788 39 61.1251H24V57.1251C24 51.9592 20.0661 50.9713 18 51.1251V60.1251C17.6186 62.339 13.0661 63.6638 11 64.1251V80.1251H14C14.5722 81.4165 17.1259 82.8945 18 83.1251H39C40.1443 83.3096 40.8411 81.0476 41 80.1251C41.3814 78.8336 39.6357 77.7401 39 77.1251M40 67.1251C39.7315 67.1762 39.3259 67.1251 39 67.1251M40 67.1251C39.677 67.1254 39.2592 67.0781 39 67.1251M40 67.1251C41.2615 67.1238 43.3037 67.2156 43 69.1251C43.1529 70.0124 42.7468 71.9936 40 72.1251M39 67.1251H27M40 72.1251C39.8911 72.1303 39.1163 72.1251 39 72.1251M40 72.1251C39.8819 72.1244 39.1064 72.1194 39 72.1251M40 72.1251C41.4708 72.1332 43.7061 72.905 43 75.1251C43 75.7401 41.67 77.1251 39 77.1251M39 72.1251H27M39 77.1251H27M26 46.1251V48.1251C26 50.6724 28.3667 53.1251 31 53.1251H39C41.6333 53.1251 44 50.6724 44 48.1251V46.1251H35H26ZM29 53.1251H40V61.1251H29V53.1251ZM1 59.1251H11V85.1251H1V59.1251ZM99 74.1251L93 78.1251L94 63.1251L109 67.1251L103 71.1251L114 81.1251L106 87.1251L99 74.1251Z" stroke="black" stroke-width="0.496403"/>
<path d="M27 47.125H36H46V49.125C46 51.3099 44.2822 52.7066 42 53.125C41.6769 53.1842 41.3425 53.125 41 53.125H32C31.0035 53.125 29.7805 53.5788 29 53.125C27.6178 52.3213 27 50.7191 27 49.125V47.125Z" fill="#E18901"/>
<path d="M30 52.125H42V61.125H30V52.125Z" fill="#E18901"/>
<path d="M35 21.125C43.0247 22.5354 64.8501 20.9907 88 3.125V27.125C90.9181 27.5951 96.9727 29.9787 96 37.125C95.5137 38.6922 92.8635 41.8086 88 43.125V66.125C78.03 58.5243 53.481 44.3638 35 48.125H17C13.8388 47.3414 7.2492 42.6563 9.00003 32.125C9.64848 28.3638 12.8022 21.125 20 21.125H35Z" fill="#FFA110"/>
<path d="M15.9999 25.125H29.9999V27.125H15.9999V25.125Z" fill="#C4C4C4"/>
<path d="M15.9999 31.125H29.9999V33.125H15.9999V31.125Z" fill="#C4C4C4"/>
<path d="M15.9999 38.125H29.9999V40.125H15.9999V38.125Z" fill="#C4C4C4"/>
<path d="M34.9999 19.125V46.125M34.9999 19.125C48.5085 21.0056 63.8819 15.2593 69.9999 12.125C73.3281 11.3728 83.3502 4.57276 87.9999 1.125V25.125M34.9999 19.125H16.9999C13.9817 20.222 7.99994 25.2265 7.99994 33.125C7.5105 36.7295 7.95198 44.2444 14.9999 46.125H34.9999M34.9999 46.125C41.6074 45.4981 57.666 45.6026 69.9999 53.125L87.9999 64.125V41.125M87.9999 25.125C90.6103 25.125 95.8042 27.1071 95.9999 33.125C96.2447 35.319 95.0479 39.4325 87.9999 41.125M87.9999 25.125V41.125M15.9999 25.125H29.9999V27.125H15.9999V25.125ZM15.9999 31.125H29.9999V33.125H15.9999V31.125ZM15.9999 38.125H29.9999V40.125H15.9999V38.125Z" stroke="black" stroke-width="0.496403"/>
<path d="M43 25.125C47.2394 24.7378 56.891 22.9836 61 21.125M65 20.125C68.0165 19.1957 74.478 16.4705 78 13.125M92 19.125L102 12.125L103 16.125L111 9.125M98 29.125H110L109 33.125L122 32.125M92 42.125L102 48.125L98 50.125L109 55.125" stroke="black" stroke-width="0.496403"/>
</svg>
