<svg width="16" height="17" viewBox="0 0 16 17" fill="none" xmlns="http://www.w3.org/2000/svg">
<path d="M11.6656 10.0873C11.467 9.9881 10.4879 9.508 10.3055 9.44238C10.123 9.37597 9.99035 9.34316 9.85772 9.54161C9.72508 9.73925 9.34325 10.1865 9.22669 10.3186C9.11093 10.4506 8.99437 10.4666 8.79582 10.3674C8.20905 10.1349 7.66746 9.80235 7.19534 9.38477C6.7599 8.98413 6.3866 8.52139 6.08762 8.01167C5.97186 7.81323 6.07556 7.70601 6.17524 7.60758C6.26447 7.51876 6.3746 7.37633 6.47347 7.26031C6.55537 7.16014 6.62249 7.04886 6.67283 6.92983C6.69932 6.87514 6.71165 6.81471 6.7087 6.75406C6.70575 6.69341 6.68762 6.63446 6.65595 6.58256C6.60611 6.48334 6.2082 5.50792 6.0426 5.11104C5.88103 4.72535 5.71704 4.77736 5.59405 4.77096C5.4783 4.76536 5.34566 4.76376 5.21302 4.76376C5.11213 4.76656 5.0129 4.79012 4.9216 4.83294C4.83029 4.87577 4.74888 4.93694 4.68248 5.01261C4.45741 5.22477 4.27921 5.48126 4.15922 5.76575C4.03923 6.05023 3.98007 6.35648 3.98553 6.66498C4.05008 7.41253 4.33254 8.12504 4.79823 8.71503C5.65186 9.98894 6.82366 11.02 8.19855 11.7069C8.56942 11.8655 8.94828 12.0049 9.3336 12.1246C9.73983 12.2473 10.1692 12.2739 10.5876 12.2022C10.8647 12.1463 11.1271 12.0338 11.3584 11.8719C11.5896 11.7099 11.7845 11.502 11.9309 11.2612C12.0615 10.9651 12.1017 10.6373 12.0466 10.3186C11.9976 10.2354 11.865 10.1865 11.6656 10.0873ZM13.6688 2.82254C12.3022 1.46252 10.4857 0.643186 8.55739 0.517075C6.62912 0.390963 4.7205 0.966668 3.18688 2.13701C1.65327 3.30735 0.599163 4.99256 0.220815 6.87892C-0.157533 8.76527 0.165661 10.7242 1.13023 12.391L0 16.4999L4.22347 15.3981C5.39161 16.0312 6.70047 16.363 8.03055 16.3631H8.03376C9.6094 16.3623 11.1495 15.8966 12.4593 15.025C13.7692 14.1533 14.7902 12.9147 15.3932 11.4657C15.9962 10.0167 16.1543 8.42227 15.8473 6.88389C15.5404 5.34552 14.7823 3.93221 13.6688 2.82253V2.82254ZM11.5523 14.0162C10.4977 14.6741 9.27835 15.0233 8.03376 15.0236H8.03055C6.84478 15.0235 5.68086 14.706 4.66077 14.1042L4.41881 13.9618L1.91238 14.6163L2.58119 12.1838L2.42444 11.9341C1.72873 10.8298 1.37764 9.54483 1.41554 8.24184C1.45345 6.93885 1.87866 5.67631 2.6374 4.61386C3.39614 3.55142 4.45433 2.73679 5.67817 2.27299C6.90202 1.80918 8.23654 1.71703 9.51299 2.00819C10.7894 2.29935 11.9505 2.96074 12.8493 3.90873C13.7482 4.85672 14.3444 6.04873 14.5627 7.33403C14.781 8.61933 14.6115 9.9402 14.0756 11.1296C13.5398 12.319 12.6616 13.3235 11.5523 14.0162Z" fill="white"/>
</svg>
