<svg width="106" height="107" viewBox="0 0 106 107" fill="none" xmlns="http://www.w3.org/2000/svg">
<path opacity="0.4" d="M88.6136 13.3095L87.8989 13.1214L80.7961 11.2286L66.121 7.28407C61.6201 6.07012 55.6877 7.6597 52.3968 10.9615L41.66 21.7151L36.4671 26.95L35.7889 27.6062C29.2877 35.0422 29.0175 36.1585 31.3069 44.703L36.7756 65.1122C39.065 73.6566 39.8573 74.4882 49.4181 77.7628L71.9107 83.7882C74.167 84.4174 76.7443 84.2962 79.2235 83.6319C81.6585 82.9794 83.9953 81.7839 85.6349 80.1109L102.243 63.4661C108.744 56.0301 109.014 54.9138 106.725 46.3694L101.256 25.9601C98.9666 17.4157 98.1744 16.5841 88.6136 13.3095Z" fill="white" fill-opacity="0.3"/>
<path d="M36.4673 26.9506L41.6602 21.7157L51.9163 11.4705L52.397 10.9621C55.6879 7.66035 61.6203 6.07077 66.1212 7.28471L66.7916 7.48467L80.7963 11.2293L87.8991 13.1221L85.3605 3.64796C82.6914 -6.31315 75.7308 -10.3319 65.7697 -7.6628L45.1834 -2.14672C35.2223 0.522353 31.2478 7.47112 33.9169 17.4322L36.4673 26.9506Z" fill="white" fill-opacity="0.3"/>
<path d="M81.5239 41.9237L79.6806 46.0238C79.3684 46.6294 79.3195 47.6864 79.5417 48.3386L80.9698 52.6061C81.8587 55.2149 80.3227 57.0974 77.5825 56.7878L73.1268 56.2735C72.4477 56.2182 71.3851 56.5029 70.8247 56.8903L67.223 59.5636C65.0048 61.2019 62.7333 60.3395 62.1987 57.6358L61.3018 53.226C61.1681 52.5501 60.5972 51.6591 60.024 51.2908L56.3776 48.6616C54.1054 47.0878 54.253 44.6282 56.6428 43.2761L60.5639 41.0867C61.1805 40.7317 61.8114 39.8983 62.0113 39.2279L63.385 34.9689C64.241 32.3196 66.5431 31.7027 68.609 33.5691L71.9281 36.5707C72.4365 37.0513 73.3995 37.4576 74.111 37.4567L78.6015 37.3923C81.3472 37.3684 82.7048 39.4246 81.5239 41.9237Z" fill="white" fill-opacity="0.3"/>
</svg>
