<svg width="106" height="115" viewBox="0 0 106 115" fill="none" xmlns="http://www.w3.org/2000/svg">
<path opacity="0.4" d="M59.4131 17.6983L78.4288 88.6657C77.6762 88.8673 76.8437 88.948 76.129 88.7599L75.9282 88.7189C66.1825 86.3479 50.0466 85.452 40.0957 86.7423L38.7643 86.9092C34.3719 87.5168 29.8511 84.4576 28.7123 80.2075L14.3823 26.7274C12.9707 21.4591 16.1974 16.324 21.5844 15.3551C31.0831 13.6166 46.4189 14.5371 55.6159 17.3397L56.9007 17.7072C57.6715 17.9277 58.572 17.9237 59.4131 17.6983Z" fill="white" fill-opacity="0.3"/>
<path d="M102.937 3.04688L117.255 56.4827C118.394 60.7328 116.009 65.6425 111.901 67.3125L110.487 67.8811C101.18 71.751 87.6216 80.651 80.3789 87.6214C79.8983 88.1298 79.2255 88.4524 78.4286 88.6659L59.413 17.6985C60.2541 17.4731 61.036 17.0264 61.5933 16.45L62.2154 15.7614C68.7672 8.69141 81.6205 0.170195 90.704 -3.11783L90.9697 -3.189C96.1194 -5.04336 101.514 -2.26572 102.937 3.04688Z" fill="white" fill-opacity="0.3"/>
<path d="M45.2713 40.1835L35.3102 42.8526C33.4951 43.339 31.5865 42.2371 31.1001 40.4219C30.6138 38.6068 31.7157 36.6982 33.5308 36.2119L43.4919 33.5428C45.3071 33.0564 47.2156 34.1583 47.702 35.9735C48.1884 37.7886 47.0864 39.6972 45.2713 40.1835Z" fill="white" fill-opacity="0.3"/>
<path d="M52.1508 52.5751L38.8693 56.1339C37.0541 56.6202 35.1456 55.5183 34.6592 53.7032C34.1729 51.888 35.2748 49.9795 37.0899 49.4931L50.3714 45.9344C52.1865 45.448 54.0951 46.5499 54.5814 48.365C55.0678 50.1802 53.9659 52.0887 52.1508 52.5751Z" fill="white" fill-opacity="0.3"/>
</svg>
