<svg width="40" height="40" viewBox="0 0 40 40" fill="none" xmlns="http://www.w3.org/2000/svg">
                    <path d="M29.1665 23.8833C30.4832 23.8833 31.8832 24.0167 33.3332 24.2833V26.7833C32.2998 26.5167 30.8998 26.3833 29.1665 26.3833C25.9998 26.3833 23.5165 26.9333 21.6665 28.0333V25.2167C23.6165 24.3333 26.1165 23.8833 29.1665 23.8833ZM21.6665 20.7667C23.8165 19.8833 26.3165 19.45 29.1665 19.45C30.4832 19.45 31.8832 19.5667 33.3332 19.8333V22.3333C32.2998 22.0667 30.8998 21.9333 29.1665 21.9333C25.9998 21.9333 23.5165 22.5 21.6665 23.5833V20.7667ZM29.1665 17.5C25.9998 17.5 23.5165 18.0333 21.6665 19.1667V16.4C23.7165 15.4667 26.2165 15 29.1665 15C30.4832 15 31.8832 15.1333 33.3332 15.3833V17.9667C32.0998 17.65 30.6832 17.5 29.1665 17.5ZM34.9998 30.8333V11.6667C33.2665 11.1167 31.3165 10.8333 29.1665 10.8333C25.7498 10.8333 22.6998 11.6667 19.9998 13.3333V32.5C22.6998 30.8333 25.7498 30 29.1665 30C31.1498 30 33.0998 30.2667 34.9998 30.8333ZM29.1665 7.5C33.0832 7.5 36.1498 8.33333 38.3332 10V34.2667C38.3332 34.4667 38.2498 34.6667 38.0665 34.85C37.8832 35 37.6832 35.1333 37.4998 35.1333C37.3165 35.1333 37.1832 35.1 37.0832 35.05C34.9498 33.9 32.2998 33.3333 29.1665 33.3333C25.7498 33.3333 22.6998 34.1667 19.9998 35.8333C17.7665 34.1667 14.7165 33.3333 10.8332 33.3333C8.0665 33.3333 5.4165 33.9333 2.9165 35.1167C2.8665 35.1333 2.79984 35.1333 2.7165 35.1667C2.64984 35.1833 2.58317 35.2 2.49984 35.2C2.3165 35.2 2.1165 35.1333 1.93317 35C1.74984 34.8167 1.6665 34.6333 1.6665 34.4167V10C3.89984 8.33333 6.9665 7.5 10.8332 7.5C14.7165 7.5 17.7665 8.33333 19.9998 10C22.2332 8.33333 25.2832 7.5 29.1665 7.5Z" fill="#FFA110" />
                </svg>
