<svg width="24" height="24" viewBox="0 0 24 24" fill="none" xmlns="http://www.w3.org/2000/svg">
<path fill-rule="evenodd" clip-rule="evenodd" d="M14.2338 1.75641C13.6653 -0.585469 10.3347 -0.585469 9.76617 1.75641C9.39891 3.26923 7.66567 3.98716 6.33624 3.17713C4.27827 1.92318 1.92318 4.27827 3.17713 6.33624C3.98716 7.66567 3.26923 9.39889 1.75641 9.76617C-0.585469 10.3347 -0.585469 13.6653 1.75641 14.2338C3.26923 14.6011 3.98716 16.3344 3.17713 17.6637C1.92318 19.7217 4.27827 22.0769 6.33625 20.8228C7.66567 20.0128 9.39891 20.7307 9.76617 22.2436C10.3347 24.5854 13.6653 24.5854 14.2338 22.2436C14.6011 20.7307 16.3344 20.0128 17.6637 20.8228C19.7217 22.0769 22.0769 19.7217 20.8228 17.6637C20.0128 16.3344 20.7307 14.6011 22.2436 14.2338C24.5854 13.6653 24.5854 10.3347 22.2436 9.76617C20.7307 9.39889 20.0128 7.66567 20.8228 6.33624C22.0769 4.27827 19.7217 1.92318 17.6637 3.17713C16.3344 3.98716 14.6011 3.26923 14.2338 1.75641ZM12 16.5C14.4854 16.5 16.5 14.4854 16.5 12C16.5 9.51473 14.4854 7.5 12 7.5C9.51473 7.5 7.5 9.51473 7.5 12C7.5 14.4854 9.51473 16.5 12 16.5Z" fill="white"/>
</svg>
