<svg width="24" height="24" viewBox="0 0 24 24" fill="none" xmlns="http://www.w3.org/2000/svg">
<path d="M8.99991 14.9999L14.9999 8.9999M3.98891 14.6599L2.46891 13.1399C1.84891 12.5199 1.84891 11.4999 2.46891 10.8799L3.98891 9.3599C4.24891 9.0999 4.45891 8.5899 4.45891 8.2299V6.0799C4.45891 5.1999 5.17891 4.4799 6.05891 4.4799H8.20891C8.56891 4.4799 9.07891 4.2699 9.33891 4.0099L10.8589 2.4899C11.4789 1.8699 12.4989 1.8699 13.1189 2.4899L14.6389 4.0099C14.8989 4.2699 15.4089 4.4799 15.7689 4.4799H17.9189C18.7989 4.4799 19.5189 5.1999 19.5189 6.0799V8.2299C19.5189 8.5899 19.7289 9.0999 19.9889 9.3599L21.5089 10.8799C22.1289 11.4999 22.1289 12.5199 21.5089 13.1399L19.9889 14.6599C19.7289 14.9199 19.5189 15.4299 19.5189 15.7899V17.9399C19.5189 18.8199 18.7989 19.5399 17.9189 19.5399H15.7689C15.4089 19.5399 14.8989 19.7499 14.6389 20.0099L13.1189 21.5299C12.4989 22.1499 11.4789 22.1499 10.8589 21.5299L9.33891 20.0099C9.07891 19.7499 8.56891 19.5399 8.20891 19.5399H6.05891C5.17891 19.5399 4.45891 18.8199 4.45891 17.9399V15.7899C4.45891 15.4199 4.24891 14.9099 3.98891 14.6599V14.6599Z" stroke="black" stroke-width="1.5" stroke-linecap="round" stroke-linejoin="round"/>
<path d="M14.4951 14.5H14.5041M9.49512 9.5H9.50312" stroke="black" stroke-width="2" stroke-linecap="round" stroke-linejoin="round"/>
</svg>
