<svg width="55" height="40" viewBox="0 0 55 40" fill="none" xmlns="http://www.w3.org/2000/svg">
<path fill-rule="evenodd" clip-rule="evenodd" d="M37.8958 10.5821C37.8958 16.4563 33.2128 21.1665 27.3726 21.1665C21.5323 21.1665 16.8494 16.4563 16.8494 10.5821C16.8494 4.70567 21.5323 0 27.3726 0C33.2128 0 37.8958 4.70567 37.8958 10.5821ZM27.3726 40C18.7946 40 11.4702 38.6401 11.4702 33.2004C11.4702 27.7585 18.7476 26.3491 27.3726 26.3491C35.9505 26.3491 43.2749 27.709 43.2749 33.1509C43.2749 38.5905 35.9975 40 27.3726 40ZM42.3927 10.7731C42.3927 13.7676 41.4996 16.5572 39.9326 18.8763C39.7714 19.1149 39.9147 19.4369 40.199 19.4864C40.5907 19.554 40.9959 19.5923 41.4078 19.6035C45.5154 19.7116 49.2023 17.0525 50.2208 13.0493C51.7295 7.10309 47.2995 1.76474 41.6585 1.76474C41.0452 1.76474 40.4587 1.83003 39.8878 1.94711C39.8095 1.96512 39.7267 2.00115 39.6819 2.07095C39.6282 2.1565 39.6685 2.27133 39.7222 2.34563C41.4167 4.73449 42.3927 7.64795 42.3927 10.7731ZM49.1956 23.7814C51.9556 24.324 53.7711 25.4318 54.5232 27.0416C55.1589 28.3633 55.1589 29.8965 54.5232 31.2159C53.3726 33.7129 49.6634 34.5144 48.2218 34.7215C47.9241 34.7666 47.6846 34.5076 47.7159 34.2082C48.4524 27.2893 42.5942 24.0088 41.0787 23.2546C41.0138 23.2208 41.0004 23.169 41.0071 23.1375C41.0116 23.115 41.0384 23.0789 41.0877 23.0722C44.3671 23.0114 47.8927 23.4617 49.1956 23.7814ZM13.5928 19.6033C14.0047 19.592 14.4076 19.556 14.8016 19.4862C15.0859 19.4367 15.2291 19.1147 15.0679 18.876C13.501 16.557 12.6078 13.7674 12.6078 10.7728C12.6078 7.64773 13.5838 4.73427 15.2784 2.34541C15.3321 2.27111 15.3701 2.15628 15.3187 2.07072C15.2739 2.00317 15.1888 1.9649 15.1127 1.94689C14.5397 1.82981 13.9532 1.76451 13.3398 1.76451C7.69878 1.76451 3.26878 7.10286 4.77977 13.0491C5.79829 17.0523 9.48511 19.7114 13.5928 19.6033ZM13.9923 23.1361C13.9991 23.1699 13.9856 23.2194 13.923 23.2555C12.4052 24.0097 6.54707 27.2902 7.28354 34.2068C7.31488 34.5086 7.0776 34.7652 6.77988 34.7224C5.33828 34.5153 1.62907 33.7138 0.478481 31.2168C-0.159494 29.8952 -0.159494 28.3642 0.478481 27.0425C1.23062 25.4327 3.04381 24.3249 5.80389 23.7801C7.10894 23.4626 10.6323 23.0123 13.914 23.0731C13.9632 23.0798 13.9879 23.1159 13.9923 23.1361Z" fill="#1089C0"/>
</svg>
