<svg width="30" height="30" viewBox="0 0 30 30" fill="none" xmlns="http://www.w3.org/2000/svg">
<path fill-rule="evenodd" clip-rule="evenodd" d="M0.333344 2.81752C0.333344 2.16756 0.591538 1.54423 1.05113 1.08464C1.51072 0.62505 2.13405 0.366855 2.78401 0.366855H27.2133C27.5354 0.366329 27.8545 0.429339 28.1522 0.552277C28.4499 0.675216 28.7205 0.855668 28.9483 1.0833C29.1762 1.31094 29.357 1.58129 29.4802 1.87887C29.6035 2.17645 29.6669 2.49542 29.6667 2.81752V27.2469C29.667 27.569 29.6039 27.8881 29.4808 28.1858C29.3577 28.4835 29.1771 28.7541 28.9494 28.9819C28.7216 29.2098 28.4512 29.3905 28.1535 29.5138C27.8559 29.637 27.5368 29.7004 27.2147 29.7002H2.78401C2.46207 29.7002 2.14329 29.6368 1.84587 29.5135C1.54846 29.3903 1.27824 29.2096 1.05066 28.9819C0.823073 28.7542 0.642586 28.4839 0.519507 28.1864C0.396428 27.8889 0.333169 27.5701 0.333344 27.2482V2.81752ZM11.944 11.5509H15.916V13.5455C16.4893 12.3989 17.956 11.3669 20.16 11.3669C24.3853 11.3669 25.3867 13.6509 25.3867 17.8415V25.6042H21.1107V18.7962C21.1107 16.4095 20.5373 15.0629 19.0813 15.0629C17.0613 15.0629 16.2213 16.5149 16.2213 18.7962V25.6042H11.944V11.5509ZM4.61068 25.4215H8.88801V11.3669H4.61068V25.4202V25.4215ZM9.50001 6.78286C9.50808 7.14909 9.44291 7.51324 9.30833 7.85394C9.17375 8.19464 8.97248 8.50504 8.71632 8.7669C8.46016 9.02876 8.15428 9.23682 7.81662 9.37886C7.47896 9.52091 7.11633 9.59408 6.75001 9.59408C6.38369 9.59408 6.02106 9.52091 5.6834 9.37886C5.34575 9.23682 5.03986 9.02876 4.7837 8.7669C4.52754 8.50504 4.32627 8.19464 4.19169 7.85394C4.05711 7.51324 3.99195 7.14909 4.00001 6.78286C4.01584 6.06399 4.31252 5.37991 4.82652 4.8771C5.34053 4.3743 6.03098 4.09275 6.75001 4.09275C7.46905 4.09275 8.1595 4.3743 8.6735 4.8771C9.1875 5.37991 9.48418 6.06399 9.50001 6.78286Z" fill="#354052"/>
</svg>
