<svg width="60" height="60" viewBox="0 0 60 60" fill="none" xmlns="http://www.w3.org/2000/svg">
<g opacity="0.4">
<circle cx="30" cy="30" r="30" fill="white"/>
<path d="M25.5166 21.1834C25.3621 21.3375 25.2395 21.5207 25.1559 21.7223C25.0722 21.9239 25.0292 22.1401 25.0292 22.3584C25.0292 22.5766 25.0722 22.7928 25.1559 22.9944C25.2395 23.196 25.3621 23.3792 25.5166 23.5334L31.9832 30L25.5166 36.4667C25.205 36.7783 25.0299 37.201 25.0299 37.6417C25.0299 38.0824 25.205 38.5051 25.5166 38.8167C25.8282 39.1283 26.2509 39.3034 26.6916 39.3034C27.1323 39.3034 27.555 39.1283 27.8666 38.8167L35.5166 31.1667C35.6711 31.0125 35.7937 30.8294 35.8773 30.6277C35.9609 30.4261 36.004 30.21 36.004 29.9917C36.004 29.7734 35.9609 29.5573 35.8773 29.3557C35.7937 29.154 35.6711 28.9709 35.5166 28.8167L27.8666 21.1667C27.2332 20.5334 26.1666 20.5334 25.5166 21.1834Z" fill="#354052"/>
</g>
</svg>
