<svg width="106" height="105" viewBox="0 0 106 105" fill="none" xmlns="http://www.w3.org/2000/svg">
<path opacity="0.4" d="M96.6029 33.5109L102.451 55.3368C103.958 60.9593 101.188 68.1546 96.3942 71.3371L83.529 79.814C81.2752 81.3195 77.2465 82.399 74.5862 82.2103L59.2061 81.3016C53.419 80.9543 47.4671 76.0959 45.9605 70.4734L40.1566 48.6356L63.141 56.1426C68.7646 58.0047 76.645 55.8932 80.584 51.4687L96.6029 33.5109Z" fill="white" fill-opacity="0.3"/>
<path d="M96.1179 3.36737L64.9372 -6.92571C59.3137 -8.78783 51.4333 -6.6763 47.4942 -2.25186L25.5047 22.2881C18.4431 30.1115 21.8002 42.6404 31.8393 45.9292L40.1565 48.6354L63.1409 56.1424C68.7645 58.0045 76.6448 55.893 80.5839 51.4685L96.6027 33.5107L101.6 27.901L105.23 41.4482C105.717 43.2633 107.625 44.3652 109.44 43.8788C111.255 43.3925 112.357 41.4839 111.871 39.6688L106.035 17.8871C106.275 11.7016 102.681 5.54724 96.1179 3.36737Z" fill="white" fill-opacity="0.3"/>
</svg>
